<?xml version="1.0" encoding="UTF-8" standalone="no"?>
<svg
   width="760.239"
   height="799.616"
   viewBox="0 0 760.239 799.616"
   role="img"
   artist="Katerina Limpitsouni"
   source="https://undraw.co/"
   version="1.1"
   id="svg76"
   sodipodi:docname="hero.svg"
   inkscape:version="1.4.3 (0d15f75042, 2025-12-25)"
   xmlns:inkscape="http://www.inkscape.org/namespaces/inkscape"
   xmlns:sodipodi="http://sodipodi.sourceforge.net/DTD/sodipodi-0.dtd"
   xmlns="http://www.w3.org/2000/svg"
   xmlns:svg="http://www.w3.org/2000/svg">
  <defs
     id="defs76" />
  <sodipodi:namedview
     id="namedview76"
     pagecolor="#ffffff"
     bordercolor="#000000"
     borderopacity="0.25"
     inkscape:showpageshadow="2"
     inkscape:pageopacity="0.0"
     inkscape:pagecheckerboard="0"
     inkscape:deskcolor="#d1d1d1"
     inkscape:zoom="0.63177938"
     inkscape:cx="465.35232"
     inkscape:cy="381.46227"
     inkscape:window-width="1520"
     inkscape:window-height="875"
     inkscape:window-x="20"
     inkscape:window-y="20"
     inkscape:window-maximized="0"
     inkscape:current-layer="svg76" />
  <rect
     width="220.75999"
     height="122.745"
     rx="6"
     fill="#e6e6e6"
     id="rect1"
     x="0"
     y="89.919998" />
  <rect
     width="213.342"
     height="114.427"
     rx="4"
     fill="#ffffff"
     id="rect2"
     x="3.822"
     y="94.191002" />
  <g
     transform="translate(26.304,123.123)"
     id="g4"
     style="fill:#ffc803;fill-opacity:1">
    <path
       d="m 715.379,329.316 a 1.254,1.254 0 0 1 -0.234,-1.076 29.7,29.7 0 0 0 0,-13.794 1.254,1.254 0 0 1 0.235,-1.076 1.233,1.233 0 0 1 0.972,-0.469 h 11.573 a 1.249,1.249 0 0 1 1.23,1.047 48.614,48.614 0 0 1 0,14.8 1.249,1.249 0 0 1 -1.23,1.047 h -11.574 a 1.233,1.233 0 0 1 -0.972,-0.479 z"
       transform="translate(-715.109,-312.9)"
       fill="#6c63ff"
       id="path2"
       style="fill:#ffc803;fill-opacity:1" />
    <path
       d="m 734.776,329.52 h -6.1 a 0.858,0.858 0 0 1 -0.857,-0.857 V 328.3 a 0.858,0.858 0 0 1 0.857,-0.857 h 6.1 a 0.858,0.858 0 0 1 0.857,0.857 v 0.364 a 0.858,0.858 0 0 1 -0.857,0.856 z"
       transform="translate(-724.192,-323.29)"
       fill="#ffffff"
       id="path3"
       style="fill:#ffc803;fill-opacity:1" />
    <path
       d="m 734.776,342.069 h -6.1 a 0.858,0.858 0 0 1 -0.857,-0.857 v -0.363 a 0.858,0.858 0 0 1 0.857,-0.857 h 6.1 a 0.858,0.858 0 0 1 0.857,0.857 v 0.364 a 0.858,0.858 0 0 1 -0.857,0.856 z"
       transform="translate(-724.192,-332.256)"
       fill="#ffffff"
       id="path4"
       style="fill:#ffc803;fill-opacity:1" />
  </g>
  <path
     d="M 204.034,107.684 H 16.626 a 0.31,0.31 0 1 1 0,-0.62 h 187.408 a 0.31,0.31 0 1 1 0,0.62 z"
     fill="#3f3d56"
     id="path5" />
  <path
     d="m 69.597,199.26 a 0.31,0.31 0 0 1 -0.31,-0.31 V 97.037 a 0.31,0.31 0 0 1 0.62,0 V 198.95 a 0.31,0.31 0 0 1 -0.31,0.31 z"
     fill="#3f3d56"
     id="path6" />
  <path
     d="m 116.372,199.26 a 0.31,0.31 0 0 1 -0.31,-0.31 V 97.037 a 0.31,0.31 0 0 1 0.62,0 V 198.95 a 0.31,0.31 0 0 1 -0.31,0.31 z"
     fill="#3f3d56"
     id="path7" />
  <path
     d="m 163.145,199.26 a 0.31,0.31 0 0 1 -0.31,-0.31 V 97.037 a 0.31,0.31 0 0 1 0.62,0 V 198.95 a 0.31,0.31 0 0 1 -0.31,0.31 z"
     fill="#3f3d56"
     id="path8" />
  <path
     d="m 155.995,155.766 h -11.318 a 1.4,1.4 0 0 1 -1.394,-1.394 v -13.357 a 1.4,1.4 0 0 1 1.394,-1.394 h 11.318 a 1.4,1.4 0 0 1 1.394,1.394 v 13.357 a 1.4,1.4 0 0 1 -1.394,1.394 z"
     fill="#090814"
     id="path9" />
  <path
     d="m 134.001,160.721 h -11.318 a 1.4,1.4 0 0 1 -1.394,-1.394 V 145.97 a 1.4,1.4 0 0 1 1.394,-1.394 h 11.318 a 1.4,1.4 0 0 1 1.394,1.394 v 13.357 a 1.4,1.4 0 0 1 -1.394,1.394 z"
     fill="#e6e6e6"
     id="path10" />
  <path
     d="M 86.608,181.785 H 75.29 a 1.4,1.4 0 0 1 -1.394,-1.394 v -13.357 a 1.4,1.4 0 0 1 1.394,-1.394 h 11.318 a 1.4,1.4 0 0 1 1.394,1.394 v 13.357 a 1.4,1.4 0 0 1 -1.394,1.394 z"
     fill="#e6e6e6"
     id="path11" />
  <path
     d="M 29.301,164.129 H 17.983 a 1.4,1.4 0 0 1 -1.394,-1.394 v -13.357 a 1.4,1.4 0 0 1 1.394,-1.394 h 11.318 a 1.4,1.4 0 0 1 1.394,1.394 v 13.357 a 1.4,1.4 0 0 1 -1.394,1.394 z"
     fill="#090814"
     id="path12" />
  <path
     d="M 61.206,139.658 H 49.888 a 1.4,1.4 0 0 1 -1.394,-1.394 v -13.357 a 1.4,1.4 0 0 1 1.394,-1.394 h 11.318 a 1.4,1.4 0 0 1 1.394,1.394 v 13.357 a 1.4,1.4 0 0 1 -1.394,1.394 z"
     fill="#e6e6e6"
     id="path13" />
  <path
     d="M 51.94,102.612 H 34.284 a 1.239,1.239 0 0 1 0,-2.478 H 51.94 a 1.239,1.239 0 0 1 0,2.478 z"
     fill="#e6e6e6"
     id="path14" />
  <path
     d="M 101.812,102.612 H 84.156 a 1.239,1.239 0 0 1 0,-2.478 h 17.656 a 1.239,1.239 0 0 1 0,2.478 z"
     fill="#e6e6e6"
     id="path15" />
  <path
     d="m 148.587,102.612 h -17.656 a 1.239,1.239 0 0 1 0,-2.478 h 17.656 a 1.239,1.239 0 0 1 0,2.478 z"
     fill="#e6e6e6"
     id="path16" />
  <path
     d="m 192.263,102.612 h -17.656 a 1.239,1.239 0 0 1 0,-2.478 h 17.656 a 1.239,1.239 0 0 1 0,2.478 z"
     fill="#e6e6e6"
     id="path17" />
  <path
     d="m 203.389,136.868 h -11.318 a 1.4,1.4 0 0 1 -1.394,-1.394 v -13.357 a 1.4,1.4 0 0 1 1.394,-1.394 h 11.318 a 1.4,1.4 0 0 1 1.394,1.394 v 13.357 a 1.4,1.4 0 0 1 -1.394,1.394 z"
     fill="#e6e6e6"
     id="path18" />
  <path
     d="m 194.406,160.721 h -11.318 a 1.4,1.4 0 0 1 -1.394,-1.394 V 145.97 a 1.4,1.4 0 0 1 1.394,-1.394 h 11.318 a 1.4,1.4 0 0 1 1.394,1.394 v 13.357 a 1.4,1.4 0 0 1 -1.394,1.394 z"
     fill="#e6e6e6"
     id="path19" />
  <g
     transform="translate(45.872,162.27)"
     id="g22">
    <path
       d="m 715.379,329.316 a 1.254,1.254 0 0 1 -0.234,-1.076 29.7,29.7 0 0 0 0,-13.794 1.254,1.254 0 0 1 0.235,-1.076 1.233,1.233 0 0 1 0.972,-0.469 h 11.573 a 1.249,1.249 0 0 1 1.23,1.047 48.614,48.614 0 0 1 0,14.8 1.249,1.249 0 0 1 -1.23,1.047 h -11.574 a 1.233,1.233 0 0 1 -0.972,-0.479 z"
       transform="translate(-715.109,-312.9)"
       fill="#6c63ff"
       id="path20"
       style="fill:#ffc803;fill-opacity:1" />
    <path
       d="m 734.776,329.52 h -6.1 a 0.858,0.858 0 0 1 -0.857,-0.857 V 328.3 a 0.858,0.858 0 0 1 0.857,-0.857 h 6.1 a 0.858,0.858 0 0 1 0.857,0.857 v 0.364 a 0.858,0.858 0 0 1 -0.857,0.856 z"
       transform="translate(-724.192,-323.29)"
       fill="#ffffff"
       id="path21" />
    <path
       d="m 734.776,342.069 h -6.1 a 0.858,0.858 0 0 1 -0.857,-0.857 v -0.363 a 0.858,0.858 0 0 1 0.857,-0.857 h 6.1 a 0.858,0.858 0 0 1 0.857,0.857 v 0.364 a 0.858,0.858 0 0 1 -0.857,0.856 z"
       transform="translate(-724.192,-332.256)"
       fill="#ffffff"
       id="path22" />
  </g>
  <g
     transform="translate(92.984,130.805)"
     id="g25"
     style="fill:#ffc803;fill-opacity:1">
    <path
       d="m 715.379,329.316 a 1.254,1.254 0 0 1 -0.234,-1.076 29.7,29.7 0 0 0 0,-13.794 1.254,1.254 0 0 1 0.235,-1.076 1.233,1.233 0 0 1 0.972,-0.469 h 11.573 a 1.249,1.249 0 0 1 1.23,1.047 48.614,48.614 0 0 1 0,14.8 1.249,1.249 0 0 1 -1.23,1.047 h -11.574 a 1.233,1.233 0 0 1 -0.972,-0.479 z"
       transform="translate(-715.109,-312.9)"
       fill="#6c63ff"
       id="path23"
       style="fill:#ffc803;fill-opacity:1" />
    <path
       d="m 734.776,329.52 h -6.1 a 0.858,0.858 0 0 1 -0.857,-0.857 V 328.3 a 0.858,0.858 0 0 1 0.857,-0.857 h 6.1 a 0.858,0.858 0 0 1 0.857,0.857 v 0.364 a 0.858,0.858 0 0 1 -0.857,0.856 z"
       transform="translate(-724.192,-323.29)"
       fill="#ffffff"
       id="path24"
       style="fill:#ffc803;fill-opacity:1" />
    <path
       d="m 734.776,342.069 h -6.1 a 0.858,0.858 0 0 1 -0.857,-0.857 v -0.363 a 0.858,0.858 0 0 1 0.857,-0.857 h 6.1 a 0.858,0.858 0 0 1 0.857,0.857 v 0.364 a 0.858,0.858 0 0 1 -0.857,0.856 z"
       transform="translate(-724.192,-332.256)"
       fill="#ffffff"
       id="path25"
       style="fill:#ffc803;fill-opacity:1" />
  </g>
  <g
     transform="translate(125.146,116.265)"
     id="g28"
     style="fill:#ffc803;fill-opacity:1">
    <path
       d="m 715.379,329.316 a 1.254,1.254 0 0 1 -0.234,-1.076 29.7,29.7 0 0 0 0,-13.794 1.254,1.254 0 0 1 0.235,-1.076 1.233,1.233 0 0 1 0.972,-0.469 h 11.573 a 1.249,1.249 0 0 1 1.23,1.047 48.614,48.614 0 0 1 0,14.8 1.249,1.249 0 0 1 -1.23,1.047 h -11.574 a 1.233,1.233 0 0 1 -0.972,-0.479 z"
       transform="translate(-715.109,-312.9)"
       fill="#6c63ff"
       id="path26"
       style="fill:#ffc803;fill-opacity:1" />
    <path
       d="m 734.776,329.52 h -6.1 a 0.858,0.858 0 0 1 -0.857,-0.857 V 328.3 a 0.858,0.858 0 0 1 0.857,-0.857 h 6.1 a 0.858,0.858 0 0 1 0.857,0.857 v 0.364 a 0.858,0.858 0 0 1 -0.857,0.856 z"
       transform="translate(-724.192,-323.29)"
       fill="#ffffff"
       id="path27"
       style="fill:#ffc803;fill-opacity:1" />
    <path
       d="m 734.776,342.069 h -6.1 a 0.858,0.858 0 0 1 -0.857,-0.857 v -0.363 a 0.858,0.858 0 0 1 0.857,-0.857 h 6.1 a 0.858,0.858 0 0 1 0.857,0.857 v 0.364 a 0.858,0.858 0 0 1 -0.857,0.856 z"
       transform="translate(-724.192,-332.256)"
       fill="#ffffff"
       id="path28"
       style="fill:#ffc803;fill-opacity:1" />
  </g>
  <g
     transform="translate(170.14,118.203)"
     id="g31"
     style="fill:#ffc803;fill-opacity:1">
    <path
       d="m 715.379,329.316 a 1.254,1.254 0 0 1 -0.234,-1.076 29.7,29.7 0 0 0 0,-13.794 1.254,1.254 0 0 1 0.235,-1.076 1.233,1.233 0 0 1 0.972,-0.469 h 11.573 a 1.249,1.249 0 0 1 1.23,1.047 48.614,48.614 0 0 1 0,14.8 1.249,1.249 0 0 1 -1.23,1.047 h -11.574 a 1.233,1.233 0 0 1 -0.972,-0.479 z"
       transform="translate(-715.109,-312.9)"
       fill="#6c63ff"
       id="path29"
       style="fill:#ffc803;fill-opacity:1" />
    <path
       d="m 734.776,329.52 h -6.1 a 0.858,0.858 0 0 1 -0.857,-0.857 V 328.3 a 0.858,0.858 0 0 1 0.857,-0.857 h 6.1 a 0.858,0.858 0 0 1 0.857,0.857 v 0.364 a 0.858,0.858 0 0 1 -0.857,0.856 z"
       transform="translate(-724.192,-323.29)"
       fill="#ffffff"
       id="path30"
       style="fill:#ffc803;fill-opacity:1" />
    <path
       d="m 734.776,342.069 h -6.1 a 0.858,0.858 0 0 1 -0.857,-0.857 v -0.363 a 0.858,0.858 0 0 1 0.857,-0.857 h 6.1 a 0.858,0.858 0 0 1 0.857,0.857 v 0.364 a 0.858,0.858 0 0 1 -0.857,0.856 z"
       transform="translate(-724.192,-332.256)"
       fill="#ffffff"
       id="path31"
       style="fill:#ffc803;fill-opacity:1" />
  </g>
  <g
     transform="translate(453.202,396.36)"
     id="g33"
     style="fill:#ffc803;fill-opacity:1">
    <path
       d="m 387.537,598.921 a 11.662,11.662 0 0 0 13.307,11.557 19.634,19.634 0 0 0 18,11.79 v 0 a 19.633,19.633 0 0 0 19.633,-19.633 v -17.011 c 0,-4.378 -3.55,-5.844 -7.928,-5.844 h -23.41 c -4.378,0 -7.928,1.465 -7.928,5.844 v 1.623 a 11.687,11.687 0 0 0 -11.674,11.674 z m 3.184,0 a 8.5,8.5 0 0 1 8.49,-8.49 v 12.2 a 19.666,19.666 0 0 0 0.581,4.747 c -0.193,0.013 -0.385,0.029 -0.581,0.029 a 8.5,8.5 0 0 1 -8.49,-8.486 z"
       transform="translate(-387.537,-579.78)"
       fill="#6c63ff"
       id="path32"
       style="fill:#ffc803;fill-opacity:1" />
    <ellipse
       cx="14.589"
       cy="2.0840001"
       rx="14.589"
       ry="2.0840001"
       transform="translate(16.674,1.2)"
       fill="#2f2e41"
       id="ellipse32"
       style="fill:#ffc803;fill-opacity:1" />
  </g>
  <rect
     width="22.136999"
     height="29.177999"
     fill="#ed9da0"
     id="rect33"
     x="429.99301"
     y="748.53497" />
  <path
     d="m 433.772,797.849 h 47.056 a 27.139,27.139 0 0 0 11.688,-2.664 l 8.674,-4.168 a 5.211,5.211 0 0 0 -0.868,-9.717 l -17.9,-4.952 -30.614,-16.089 -0.023,0.116 c -0.572,2.9 -1.459,7.281 -1.573,7.547 -3.14,3.6 -6.365,5.254 -9.587,4.928 -5.619,-0.57 -9.355,-7.058 -9.391,-7.124 l -0.028,-0.05 -0.057,0.006 a 3.726,3.726 0 0 0 -2.893,1.578 c -1.282,1.933 -0.5,4.909 -0.371,5.359 -1.535,1.5 -2.224,9.89 -2.277,10.567 -2.22,2.353 -3.274,4.614 -3.135,6.723 a 7.24,7.24 0 0 0 3.038,5.087 13.141,13.141 0 0 0 8.261,2.86 z"
     fill="#090814"
     id="path33"
     style="fill:#080814;fill-opacity:0.65882355" />
  <rect
     width="22.136999"
     height="29.177999"
     transform="rotate(-163.78)"
     fill="#ed9da0"
     id="rect34"
     x="-500.18839"
     y="-655.81726" />
  <path
     d="m 273.845,783.634 45.183,13.145 a 27.141,27.141 0 0 0 11.967,0.708 l 9.495,-1.581 a 5.21,5.21 0 0 0 1.876,-9.572 l -15.8,-9.754 -24.906,-24 -0.054,0.1 c -1.355,2.624 -3.439,6.583 -3.618,6.807 -4.019,2.577 -7.579,3.267 -10.581,2.054 -5.237,-2.116 -7.01,-9.39 -7.028,-9.463 l -0.014,-0.056 -0.056,-0.01 a 3.726,3.726 0 0 0 -3.218,0.706 c -1.772,1.5 -1.851,4.575 -1.853,5.042 -1.894,1.013 -4.9,8.875 -5.139,9.51 -2.789,1.639 -4.433,3.516 -4.887,5.579 a 7.239,7.239 0 0 0 1.5,5.732 13.141,13.141 0 0 0 7.133,5.053 z"
     fill="#090814"
     id="path34"
     style="fill:#090814;fill-opacity:0.65706342" />
  <path
     d="m 347.03,224.182 a 35.989,35.989 0 1 1 46.773,34.343 l -6.957,45.979 -35.467,-29.556 a 89.348,89.348 0 0 0 11.776,-20.764 35.952,35.952 0 0 1 -16.117,-30 z"
     fill="#ed9da0"
     id="path35" />
  <path
     d="m 332.828,401.807 -5.195,-72.731 a 48.1,48.1 0 0 1 2.346,-18.641 l 15.4,-46.184 45.347,14.565 19.134,43.775 10.421,19.106 a 22.335,22.335 0 0 1 -3.814,26.487 l -6.607,6.607 9.209,33.776 -0.969,-0.034 1.3,0.168 c 0,0 61.569,185.223 59.36,342.746 h -79.029 l -4.689,-182.856 -13.728,189.953 -104.138,-6 55.648,-350.737 z"
     fill="#e6e6e6"
     id="path36"
     style="fill:#918a6f;fill-opacity:1" />
  <path
     d="m 335.475,271.466 c 0,0 1.681,12.75 17.251,13.167 l 31.584,0.845 c 0,0 -26.7,-64.977 -15.718,-57.657 10.982,7.32 40.254,-23.368 40.254,-23.368 l 8.638,16.2 c 0,0 20.633,-7.473 -2.234,-25.773 0,0 -27.289,-21.1 -56.261,-8.428 -28.972,12.672 -23.514,85.014 -23.514,85.014 z"
     fill="#090814"
     id="path37" />
  <path
     d="m 463.201,416.144 c 0.417,-8.12 -7.19,-15.11 -17,-15.62 a 19.315,19.315 0 0 0 -14.14,4.794 l -0.223,-0.011 -58.154,-6.022 4.362,-57.717 c 1.614,-11.165 -1.52,-22.416 -12.515,-24.945 v 0 a 21.681,21.681 0 0 0 -26.542,21.229 l 0.333,72.7 a 18.682,18.682 0 0 0 18.8,18.6 l 72.983,-5.454 a 19.315,19.315 0 0 0 13.571,6.229 c 9.811,0.508 18.105,-5.665 18.524,-13.784 z"
     fill="#ed9da0"
     id="path38" />
  <path
     d="m 383.64,316.089 -3.5,65.845 -48.673,-3.3 8.608,-68.483"
     fill="#e6e6e6"
     id="path39"
     style="fill:#918a6f" />
  <path
     d="m 563.607,799.211 -357.96,0.4 a 1.5685,1.5685 0 0 1 0,-3.137 l 357.96,-0.4 a 1.5685,1.5685 0 0 1 0,3.137 z"
     fill="#e6e6e6"
     id="path40" />
  <path
     d="m 672.829,197.077 -89,22.917 a 11.768,11.768 0 0 1 -14.315,-8.452 l -26.913,-104.52 a 11.768,11.768 0 0 1 8.452,-14.315 l 82.8,-21.321 21.191,9.487 26.237,101.892 a 11.768,11.768 0 0 1 -8.452,14.312 z"
     fill="#e6e6e6"
     id="path41" />
  <path
     d="m 551.902,95.985 a 8.38,8.38 0 0 0 -6.019,10.193 l 26.915,104.52 a 8.38,8.38 0 0 0 10.193,6.019 l 89,-22.921 a 8.38,8.38 0 0 0 6.019,-10.193 L 652.178,83.293 633.553,74.959 Z"
     fill="#ffffff"
     id="path42" />
  <path
     d="m 654.821,81.415 -13.777,3.547 a 3.912,3.912 0 0 1 -4.768,-2.815 l -2.619,-10.173 a 0.245,0.245 0 0 1 0.34,-0.285 l 20.862,9.265 a 0.245,0.245 0 0 1 -0.038,0.461 z"
     fill="#e6e6e6"
     id="path43" />
  <path
     d="m 647.575,170.67 -40.519,10.435 a 1.9573105,1.9573105 0 0 1 -0.976,-3.791 l 40.515,-10.435 a 1.958,1.958 0 1 1 0.976,3.791 z"
     fill="#cccccc"
     id="path44" />
  <path
     d="m 657.042,175.054 -48.338,12.448 a 1.9573105,1.9573105 0 0 1 -0.976,-3.791 l 48.338,-12.448 a 1.9573105,1.9573105 0 1 1 0.976,3.791 z"
     fill="#cccccc"
     id="path45" />
  <circle
     cx="590.51801"
     cy="186.752"
     r="6.9180002"
     fill="#6c63ff"
     id="circle45"
     style="fill:#ffc803;fill-opacity:1" />
  <path
     d="m 643.268,152.564 -53.815,13.853 a 6.062,6.062 0 0 1 -7.373,-4.355 l -11.277,-43.81 a 6.062,6.062 0 0 1 4.355,-7.37 L 628.971,97.03 a 6.062,6.062 0 0 1 7.373,4.355 l 11.277,43.809 a 6.062,6.062 0 0 1 -4.353,7.369 z"
     fill="#ffffff"
     id="path46" />
  <path
     d="m 643.268,152.564 -53.815,13.853 a 6.062,6.062 0 0 1 -7.373,-4.355 l -11.277,-43.81 a 6.062,6.062 0 0 1 4.355,-7.37 L 628.971,97.03 a 6.062,6.062 0 0 1 7.373,4.355 l 11.277,43.809 a 6.062,6.062 0 0 1 -4.353,7.369 z m -67.932,-40.992 a 5.348,5.348 0 0 0 -3.841,6.507 l 11.277,43.809 a 5.349,5.349 0 0 0 6.507,3.841 l 53.81,-13.855 a 5.349,5.349 0 0 0 3.841,-6.507 l -11.276,-43.809 a 5.349,5.349 0 0 0 -6.507,-3.841 z"
     fill="#e6e6e6"
     id="path47" />
  <path
     d="m 626.239,111.757 -27.158,6.991 a 0.973,0.973 0 0 1 -1.179,-0.611 0.936,0.936 0 0 1 0.66,-1.191 l 27.646,-7.117 c 1.117,0.566 0.822,1.723 0.031,1.927 z"
     fill="#f2f2f2"
     id="path48" />
  <path
     d="m 627.464,116.522 -27.158,6.991 a 0.973,0.973 0 0 1 -1.179,-0.612 0.935,0.935 0 0 1 0.66,-1.191 l 27.646,-7.117 c 1.117,0.566 0.823,1.723 0.031,1.927 z"
     fill="#f2f2f2"
     id="path49" />
  <path
     d="m 595.133,127.732 -8.289,2.133 a 1.054,1.054 0 0 1 -1.283,-0.758 l -2.518,-9.78 a 1.054,1.054 0 0 1 0.758,-1.283 l 8.289,-2.134 a 1.055,1.055 0 0 1 1.283,0.758 l 2.518,9.78 a 1.054,1.054 0 0 1 -0.758,1.283 z"
     fill="#6c63ff"
     id="path50"
     style="fill:#ffc803;fill-opacity:1" />
  <path
     d="m 629.898,126.293 -41.449,10.67 a 0.973,0.973 0 0 1 -1.179,-0.611 0.935,0.935 0 0 1 0.66,-1.191 l 41.937,-10.795 c 1.117,0.566 0.823,1.723 0.031,1.927 z"
     fill="#f2f2f2"
     id="path51" />
  <path
     d="m 631.125,131.06 -41.45,10.67 a 0.973,0.973 0 0 1 -1.179,-0.611 0.936,0.936 0 0 1 0.66,-1.191 l 41.94,-10.795 c 1.117,0.566 0.823,1.723 0.031,1.927 z"
     fill="#f2f2f2"
     id="path52" />
  <path
     d="m 632.35,135.822 -41.449,10.67 a 0.973,0.973 0 0 1 -1.179,-0.611 0.936,0.936 0 0 1 0.66,-1.191 l 41.937,-10.795 c 1.117,0.566 0.819,1.723 0.031,1.927 z"
     fill="#f2f2f2"
     id="path53" />
  <path
     d="m 633.577,140.587 -41.449,10.674 a 0.973,0.973 0 0 1 -1.179,-0.611 0.936,0.936 0 0 1 0.66,-1.191 l 41.938,-10.798 c 1.117,0.565 0.822,1.722 0.03,1.926 z"
     fill="#f2f2f2"
     id="path54" />
  <path
     d="m 634.803,145.354 -41.449,10.67 a 0.973,0.973 0 0 1 -1.179,-0.611 0.935,0.935 0 0 1 0.66,-1.191 l 41.937,-10.795 c 1.116,0.562 0.823,1.727 0.031,1.927 z"
     fill="#f2f2f2"
     id="path55" />
  <path
     d="m 591.029,189.178 a 0.716,0.716 0 0 1 -0.454,-0.031 h -0.009 l -1.885,-0.8 a 0.723,0.723 0 0 1 0.566,-1.33 l 1.221,0.52 1.6,-3.765 a 0.722,0.722 0 0 1 0.947,-0.382 v 0 l -0.009,0.025 0.01,-0.025 a 0.723,0.723 0 0 1 0.382,0.947 l -1.883,4.422 a 0.723,0.723 0 0 1 -0.486,0.416 z"
     fill="#ffffff"
     id="path56" />
  <path
     d="m 723.62437,224.57277 -90.21154,-17.53535 a 11.768,11.768 0 0 1 -9.29588,-13.78297 L 644.71058,87.309391 a 11.768,11.768 0 0 1 13.78199,-9.296067 l 83.92912,16.314169 15.05908,17.670057 -20.07521,103.27798 a 11.768,11.768 0 0 1 -13.78218,9.29704 z"
     fill="#e6e6e6"
     id="path57" />
  <path
     d="m 657.84687,81.33515 a 8.38,8.38 0 0 0 -9.81446,6.619939 L 627.43859,193.90113 a 8.38,8.38 0 0 0 6.61994,9.81446 l 90.21153,17.53535 a 8.38,8.38 0 0 0 9.81447,-6.61994 L 753.8489,112.95209 740.61179,97.42302 Z"
     fill="#ffffff"
     id="path58" />
  <path
     d="M 724.52621,126.26363 683.451,118.27942 a 1.956,1.956 0 1 1 0.74644,-3.84013 l 41.07521,7.98421 a 1.956,1.956 0 1 1 -0.74644,3.84013 z"
     fill="#6c63ff"
     id="path59"
     style="fill:#ffc803;fill-opacity:1" />
  <path
     d="m 731.18942,134.28847 -48.9989,-9.52442 a 1.956,1.956 0 1 1 0.74644,-3.84013 l 48.9989,9.52442 a 1.956,1.956 0 1 1 -0.74644,3.84013 z"
     fill="#6c63ff"
     id="path60"
     style="fill:#ffc803;fill-opacity:1" />
  <path
     d="m 719.62474,151.48477 -41.07521,-7.98421 a 1.956,1.956 0 1 0 -0.74645,3.84012 l 41.07521,7.98421 a 1.956,1.956 0 1 0 0.74645,-3.84012 z"
     fill="#cccccc"
     id="path61"
     style="fill:#000000" />
  <path
     d="m 726.28756,159.51157 -48.9989,-9.52442 a 1.956,1.956 0 1 0 -0.74644,3.84012 l 48.9989,9.52442 a 1.956,1.956 0 0 0 0.74644,-3.84012 z"
     fill="#cccccc"
     id="path62"
     style="fill:#000000" />
  <path
     d="m 713.22783,184.38872 -41.0752,-7.98421 a 1.956,1.956 0 1 1 0.74644,-3.84013 l 41.07521,7.98421 a 1.956,1.956 0 1 1 -0.74645,3.84013 z"
     fill="#cccccc"
     id="path63" />
  <path
     d="m 719.89085,192.41454 -48.9989,-9.52442 a 1.956,1.956 0 1 1 0.74645,-3.84013 l 48.9989,9.52443 a 1.956,1.956 0 1 1 -0.74645,3.84012 z"
     fill="#cccccc"
     id="path64" />
  <circle
     cx="676.03986"
     cy="-12.954306"
     r="6.9180002"
     transform="rotate(11)"
     fill="#6c63ff"
     id="circle64"
     style="fill:#ffc803;fill-opacity:1" />
  <path
     d="m 664.91591,118.73819 a 0.718,0.718 0 0 1 -0.39659,-0.22379 l -0.007,-0.007 -1.35895,-1.53042 a 0.723,0.723 0 1 1 1.08171,-0.95821 l 0.88046,0.99427 3.05773,-2.71239 a 0.722,0.722 0 0 1 1.02388,0.0625 v 0 l -0.0207,0.0174 0.0236,-0.0168 a 0.723,0.723 0 0 1 -0.0617,1.01996 l -3.60547,3.18761 a 0.723,0.723 0 0 1 -0.61805,0.16612 z"
     fill="#ffffff"
     id="path65" />
  <path
     d="m 667.93143,146.79709 a 6.918,6.918 0 0 1 -8.11051,5.47402 1.487,1.487 0 0 1 -0.17339,-0.0408 6.918,6.918 0 1 1 8.2888,-5.43222 z"
     fill="#6c63ff"
     id="path66"
     style="fill:#ffc803;fill-opacity:1" />
  <circle
     cx="676.03986"
     cy="46.258694"
     r="6.9180002"
     transform="rotate(11)"
     fill="#6c63ff"
     id="circle66"
     style="fill:#ffc803;fill-opacity:1" />
  <path
     d="m 757.04534,112.38763 -13.96462,-2.71445 a 3.912,3.912 0 0 1 -3.09369,-4.58657 l 2.00483,-10.313954 a 0.245,0.245 0 0 1 0.42948,-0.11313 l 14.85679,17.327154 a 0.245,0.245 0 0 1 -0.2324,0.39899 z"
     fill="#e6e6e6"
     id="path67" />
  <rect
     width="217.924"
     height="121.168"
     rx="6"
     fill="#e6e6e6"
     id="rect69"
     x="286.21799"
     y="0" />
  <rect
     width="210.60001"
     height="112.957"
     rx="4"
     fill="#ffffff"
     id="rect70"
     x="289.991"
     y="4.2179999" />
  <path
     d="M 472.084,98.036 H 318.277 a 0.481,0.481 0 0 1 -0.481,-0.481 v -73.72 a 0.4815,0.4815 0 1 1 0.963,0 v 73.239 h 153.325 a 0.4815,0.4815 0 1 1 0,0.963 z"
     fill="#3f3d56"
     id="path70" />
  <path
     d="m 351.139,92.741 h -13.99 A 1.431,1.431 0 0 1 335.72,91.312 V 72.028 a 1.431,1.431 0 0 1 1.429,-1.429 h 13.989 a 1.43,1.43 0 0 1 1.429,1.429 v 19.284 a 1.43,1.43 0 0 1 -1.429,1.429 z"
     fill="#6c63ff"
     id="path71"
     style="fill:#e6e6e6;fill-opacity:1" />
  <path
     d="m 376.649,92.742 h -13.99 A 1.431,1.431 0 0 1 361.23,91.313 V 53.736 a 1.431,1.431 0 0 1 1.429,-1.429 h 13.989 a 1.43,1.43 0 0 1 1.429,1.429 v 37.575 a 1.43,1.43 0 0 1 -1.429,1.429 z"
     fill="#6c63ff"
     id="path72"
     style="fill:#ffc803;fill-opacity:1" />
  <path
     d="m 402.161,92.741 h -13.99 a 1.431,1.431 0 0 1 -1.429,-1.429 V 72.028 a 1.431,1.431 0 0 1 1.429,-1.429 h 13.989 a 1.43,1.43 0 0 1 1.429,1.429 v 19.284 a 1.43,1.43 0 0 1 -1.429,1.429 z"
     fill="#6c63ff"
     id="path73"
     style="fill:#e6e6e6;fill-opacity:1" />
  <path
     d="m 427.673,92.74 h -13.99 a 1.4,1.4 0 0 1 -1.429,-1.364 V 46.45 a 1.4,1.4 0 0 1 1.429,-1.364 h 13.989 a 1.4,1.4 0 0 1 1.429,1.364 v 44.93 a 1.4,1.4 0 0 1 -1.428,1.364 z"
     fill="#6c63ff"
     id="path74"
     style="fill:#ffc803;fill-opacity:1" />
  <path
     d="m 453.181,92.743 h -13.99 a 1.43,1.43 0 0 1 -1.429,-1.429 V 33.522 a 1.43,1.43 0 0 1 1.429,-1.429 h 13.99 a 1.43,1.43 0 0 1 1.429,1.429 v 57.792 a 1.43,1.43 0 0 1 -1.429,1.429 z"
     fill="#6c63ff"
     id="path75"
     style="fill:#000000;fill-opacity:1" />
</svg>
