<?xml version="1.0" encoding="UTF-8" standalone="no"?>
<!-- Created with Inkscape (http://www.inkscape.org/) -->

<svg
   width="72.637032mm"
   height="54.378086mm"
   viewBox="0 0 72.637031 54.378086"
   version="1.1"
   id="svg1"
   inkscape:version="1.4.3 (0d15f75042, 2025-12-25)"
   sodipodi:docname="logo-icon-preto.svg"
   inkscape:export-filename="logo-fundo_preto.png"
   inkscape:export-xdpi="96"
   inkscape:export-ydpi="96"
   xmlns:inkscape="http://www.inkscape.org/namespaces/inkscape"
   xmlns:sodipodi="http://sodipodi.sourceforge.net/DTD/sodipodi-0.dtd"
   xmlns="http://www.w3.org/2000/svg"
   xmlns:svg="http://www.w3.org/2000/svg">
  <sodipodi:namedview
     id="namedview1"
     pagecolor="#ffffff"
     bordercolor="#000000"
     borderopacity="0.25"
     inkscape:showpageshadow="2"
     inkscape:pageopacity="0.0"
     inkscape:pagecheckerboard="0"
     inkscape:deskcolor="#d1d1d1"
     inkscape:document-units="mm"
     inkscape:zoom="0.43850023"
     inkscape:cx="104.90302"
     inkscape:cy="152.79354"
     inkscape:window-width="1536"
     inkscape:window-height="891"
     inkscape:window-x="0"
     inkscape:window-y="0"
     inkscape:window-maximized="1"
     inkscape:current-layer="layer1" />
  <defs
     id="defs1" />
  <g
     inkscape:label="Camada 1"
     inkscape:groupmode="layer"
     id="layer1"
     transform="translate(-105.5542,-80.823473)">
    <g
       id="g10-6-4-8"
       transform="matrix(5.4776215,0,0,5.4776215,-506.18405,-1325.6728)"
       style="fill:#000000">
      <path
         style="fill:#000000;fill-opacity:1;stroke:none;stroke-width:0.424517;stroke-opacity:1"
         d="m 115.56233,258.5496 0.003,5.30295 c 0,0 -0.54504,0.69063 -1.15889,0.74971 -0.92628,0.0892 -2.7126,-0.92086 -2.7126,-0.92086 l -0.0143,-5.14196 z"
         id="path6-1-4-3-1-6"
         sodipodi:nodetypes="ccsccc" />
      <path
         style="fill:#000000;fill-opacity:1;stroke:none;stroke-width:0.485724;stroke-opacity:1"
         d="m 111.69332,263.68105 c 0,0 3.30937,3.0577 5.35895,3.01722 3.03225,-0.06 7.74571,-4.77351 7.74571,-4.77351 0.10779,-4.44666 0.31429,-5.4398 -0.13496,-5.08874 -3.09978,2.42134 -7.06079,5.66058 -11.30333,6.84503 -0.53495,0.14939 -1.66623,0 -1.66623,0 z"
         id="path7-7-0-17-8-0"
         sodipodi:nodetypes="cscsscc" />
    </g>
  </g>
</svg>
